<svg width="123" height="42" viewBox="0 0 123 42" fill="none" xmlns="http://www.w3.org/2000/svg">
<rect x="1.49768" y="0.5" width="121" height="41" rx="6.5" fill="black"/>
<g clip-path="url(#clip0_1820_23)">
<path d="M15.4337 11.3322L6.43373 12.5012C6.18281 12.5336 5.99564 12.7483 5.9977 13.0013V20.0012C5.9977 20.2774 6.22157 20.5013 6.49771 20.5013H15.4977C15.7739 20.5013 15.9977 20.2774 15.9977 20.0012V11.8272C15.9975 11.6836 15.9356 11.547 15.8277 11.4522C15.719 11.3588 15.5761 11.3152 15.4337 11.3322Z" fill="#F44336"/>
<path d="M29.8277 9.62623C29.7206 9.52967 29.5769 9.4841 29.4337 9.50121L17.4337 11.0662C17.1829 11.0986 16.9956 11.3133 16.9978 11.5662V20.0013C16.9978 20.2774 17.2216 20.5013 17.4978 20.5013H29.4978C29.7739 20.5013 29.9978 20.2774 29.9978 20.0013V10.0012C29.9976 9.8576 29.9356 9.72101 29.8277 9.62623Z" fill="#4CAF50"/>
<path d="M15.4977 21.5012H6.49771C6.22157 21.5012 5.9977 21.7251 5.9977 22.0012V29.0012C5.99564 29.2542 6.18281 29.4688 6.43368 29.5012L15.4337 30.6752C15.455 30.6767 15.4764 30.6767 15.4977 30.6752C15.7738 30.6752 15.9977 30.4513 15.9977 30.1752V22.0012C15.9977 21.7251 15.7739 21.5012 15.4977 21.5012Z" fill="#2196F3"/>
<path d="M29.4977 21.5012H17.4977C17.2216 21.5012 16.9977 21.7251 16.9977 22.0012V30.4363C16.9956 30.6892 17.1828 30.9039 17.4337 30.9363L29.4337 32.5013C29.455 32.5027 29.4764 32.5027 29.4977 32.5013C29.7738 32.5013 29.9977 32.2774 29.9977 32.0013V22.0012C29.9977 21.7251 29.7739 21.5012 29.4977 21.5012Z" fill="#FFC107"/>
</g>
<path d="M40.0677 13.203C40.5717 13.5 41.1297 13.644 41.7417 13.644C42.7227 13.644 43.5147 13.329 44.1087 12.681C44.3787 12.402 44.5857 12.078 44.7117 11.7C44.8377 11.322 44.9007 10.935 44.9007 10.539C44.9007 10.395 44.8827 10.242 44.8557 10.071H41.7597V10.782H44.1447C44.1177 11.07 44.0547 11.34 43.9647 11.574C43.8657 11.808 43.7397 12.015 43.5867 12.177C43.3707 12.402 43.1187 12.582 42.8307 12.717C42.5427 12.852 42.1827 12.915 41.7507 12.915C41.3007 12.915 40.8777 12.807 40.4817 12.591C40.0857 12.375 39.7617 12.06 39.5277 11.664C39.2937 11.268 39.1767 10.8 39.1767 10.278C39.1767 9.756 39.2937 9.297 39.5277 8.901C39.7617 8.505 40.0857 8.19 40.4817 7.974C40.8777 7.758 41.3007 7.641 41.7507 7.641C42.1107 7.641 42.4527 7.713 42.7767 7.848C43.0917 7.983 43.3527 8.172 43.5687 8.424L44.1087 7.875C43.8387 7.569 43.4877 7.335 43.0737 7.164C42.6597 7.002 42.2097 6.912 41.7417 6.912C41.1297 6.912 40.5717 7.065 40.0677 7.353C39.5547 7.65 39.1497 8.055 38.8527 8.568C38.5467 9.09 38.4027 9.657 38.4027 10.278C38.4027 10.908 38.5467 11.475 38.8527 11.988C39.1497 12.51 39.5547 12.915 40.0677 13.203ZM46.039 7.056V13.5H49.765V12.771H46.804V10.638H49.477V9.918H46.804V7.785H49.765V7.056H46.039ZM52.319 7.785V13.5H53.084V7.785H54.884V7.056H50.51V7.785H52.319ZM57.9306 7.056V13.5H58.6956V7.056H57.9306ZM61.4596 7.785V13.5H62.2246V7.785H64.0246V7.056H59.6506V7.785H61.4596ZM68.2004 13.194C68.7044 13.5 69.2624 13.644 69.8834 13.644C70.4954 13.644 71.0624 13.5 71.5664 13.194C72.0704 12.897 72.4664 12.492 72.7544 11.97C73.0424 11.457 73.1864 10.89 73.1864 10.278C73.1864 9.666 73.0424 9.108 72.7544 8.586C72.4664 8.073 72.0704 7.668 71.5664 7.362C71.0624 7.065 70.4954 6.912 69.8834 6.912C69.2624 6.912 68.7044 7.065 68.2004 7.362C67.6964 7.668 67.3004 8.073 67.0124 8.586C66.7244 9.108 66.5804 9.666 66.5804 10.278C66.5804 10.89 66.7244 11.457 67.0124 11.97C67.3004 12.492 67.6964 12.897 68.2004 13.194ZM71.1524 12.582C70.7654 12.807 70.3424 12.915 69.8834 12.915C69.4154 12.915 68.9924 12.807 68.6054 12.582C68.2184 12.357 67.9124 12.042 67.6874 11.646C67.4624 11.25 67.3544 10.791 67.3544 10.278C67.3544 9.774 67.4624 9.315 67.6874 8.919C67.9124 8.523 68.2184 8.208 68.6054 7.983C68.9924 7.758 69.4154 7.641 69.8834 7.641C70.3424 7.641 70.7654 7.758 71.1524 7.983C71.5394 8.208 71.8454 8.523 72.0704 8.919C72.2954 9.315 72.4124 9.774 72.4124 10.278C72.4124 10.791 72.2954 11.25 72.0704 11.646C71.8454 12.042 71.5394 12.357 71.1524 12.582ZM74.3134 7.056V13.5H75.0784V9.369L75.0424 8.127H75.0784L78.4534 13.5H79.2454V7.056H78.4804V10.944L78.5164 12.186H78.4804L75.2494 7.056H74.3134Z" fill="white"/>
<path d="M38.2697 20.044L41.3097 31.5H43.5337L45.5817 24.588L45.8377 23.356H45.9657L46.2217 24.588L48.1737 31.5H50.4937L53.4537 20.044H51.0537L49.5017 26.476L49.3097 27.644H49.1817L48.9257 26.476L46.9577 20.044H44.8297L42.8137 26.476L42.5577 27.676H42.4297L42.2377 26.476L40.6697 20.044H38.2697ZM54.6832 22.044C54.9392 22.316 55.2592 22.444 55.6432 22.444C56.0112 22.444 56.3312 22.316 56.5872 22.044C56.8432 21.788 56.9872 21.468 56.9872 21.084C56.9872 20.716 56.8432 20.396 56.5872 20.14C56.3312 19.884 56.0112 19.74 55.6432 19.74C55.2592 19.74 54.9392 19.884 54.6832 20.14C54.4112 20.396 54.2832 20.716 54.2832 21.084C54.2832 21.468 54.4112 21.788 54.6832 22.044ZM54.5872 23.34V31.5H56.6832V23.34H54.5872ZM58.8654 23.34V31.5H60.9614V27.34C60.9614 26.684 61.1214 26.14 61.4734 25.692C61.8254 25.26 62.2734 25.036 62.8494 25.036C63.3294 25.036 63.6974 25.18 63.9694 25.468C64.2254 25.756 64.3694 26.172 64.3694 26.684V31.5H66.4654V26.428C66.4654 25.404 66.2094 24.588 65.6974 23.98C65.1854 23.388 64.4334 23.084 63.4574 23.084C62.9294 23.084 62.4494 23.212 62.0014 23.436C61.5534 23.66 61.2014 23.98 60.9614 24.364H60.8334V23.34H58.8654ZM69.9316 31.212C70.5396 31.58 71.2116 31.756 71.9476 31.756C72.4916 31.756 72.9876 31.644 73.4196 31.404C73.8516 31.18 74.1716 30.876 74.3956 30.524H74.5236V31.5H76.4756V20.044H74.3956V23.18L74.5236 24.332H74.3956C74.1716 23.98 73.8356 23.692 73.4196 23.452C72.9876 23.212 72.4916 23.084 71.9476 23.084C71.2116 23.084 70.5396 23.276 69.9316 23.644C69.3236 24.012 68.8596 24.524 68.5076 25.18C68.1556 25.852 67.9956 26.588 67.9956 27.42C67.9956 28.268 68.1556 29.02 68.5076 29.676C68.8596 30.332 69.3236 30.844 69.9316 31.212ZM73.4036 29.516C73.0516 29.724 72.6836 29.82 72.2996 29.82C71.9156 29.82 71.5476 29.724 71.2116 29.516C70.8596 29.324 70.5876 29.036 70.3956 28.668C70.1876 28.316 70.0916 27.9 70.0916 27.42C70.0916 26.956 70.1876 26.54 70.3956 26.172C70.5876 25.82 70.8596 25.532 71.2116 25.34C71.5476 25.148 71.9156 25.036 72.2996 25.036C72.6836 25.036 73.0516 25.148 73.4036 25.34C73.7396 25.532 74.0116 25.82 74.2196 26.172C74.4116 26.54 74.5236 26.956 74.5236 27.42C74.5236 27.9 74.4116 28.316 74.2196 28.668C74.0116 29.036 73.7396 29.324 73.4036 29.516ZM80.1072 31.196C80.7632 31.58 81.5152 31.756 82.3632 31.756C83.1952 31.756 83.9312 31.58 84.6032 31.196C85.2592 30.812 85.7712 30.3 86.1392 29.644C86.5072 28.988 86.6992 28.252 86.6992 27.42C86.6992 26.62 86.5072 25.884 86.1392 25.212C85.7712 24.556 85.2592 24.044 84.6032 23.66C83.9312 23.276 83.1952 23.084 82.3632 23.084C81.5152 23.084 80.7632 23.276 80.1072 23.66C79.4352 24.044 78.9232 24.556 78.5552 25.212C78.1872 25.884 78.0112 26.62 78.0112 27.42C78.0112 28.252 78.1872 28.988 78.5552 29.644C78.9232 30.3 79.4352 30.812 80.1072 31.196ZM83.4832 29.532C83.1312 29.724 82.7632 29.82 82.3632 29.82C81.9472 29.82 81.5792 29.724 81.2432 29.532C80.8912 29.34 80.6192 29.068 80.4112 28.7C80.2032 28.332 80.1072 27.9 80.1072 27.42C80.1072 26.94 80.2032 26.524 80.4112 26.156C80.6192 25.804 80.8912 25.516 81.2432 25.324C81.5792 25.132 81.9472 25.036 82.3632 25.036C82.7632 25.036 83.1312 25.132 83.4832 25.324C83.8192 25.516 84.0912 25.804 84.2992 26.156C84.4912 26.524 84.6032 26.94 84.6032 27.42C84.6032 27.916 84.4912 28.348 84.2992 28.7C84.0912 29.068 83.8192 29.34 83.4832 29.532ZM87.2347 23.34L89.8267 31.5H92.0667L93.7147 26.22H93.8267L95.4907 31.5H97.7467L100.355 23.34H98.0347L96.6267 28.636H96.5147L94.8827 23.34H92.7387L91.1067 28.636H90.9947L89.5867 23.34H87.2347ZM102.163 31.148C102.771 31.564 103.587 31.756 104.579 31.756C105.219 31.756 105.795 31.644 106.323 31.42C106.851 31.196 107.267 30.892 107.571 30.492C107.875 30.092 108.035 29.628 108.035 29.1C108.035 28.492 107.827 27.98 107.411 27.564C106.995 27.148 106.387 26.844 105.587 26.636L104.387 26.348C103.651 26.156 103.299 25.868 103.299 25.484C103.299 25.292 103.395 25.116 103.619 24.988C103.827 24.86 104.115 24.78 104.483 24.78C105.187 24.78 105.699 25.068 106.019 25.644L107.811 24.86C107.235 23.676 106.115 23.084 104.435 23.084C103.843 23.084 103.299 23.196 102.819 23.388C102.339 23.596 101.955 23.884 101.667 24.252C101.379 24.636 101.251 25.052 101.251 25.516C101.251 26.156 101.459 26.684 101.907 27.1C102.339 27.516 102.883 27.804 103.555 27.964L104.515 28.172C104.979 28.284 105.331 28.412 105.571 28.54C105.795 28.668 105.923 28.876 105.923 29.132C105.923 29.42 105.795 29.612 105.539 29.74C105.283 29.868 104.963 29.916 104.579 29.916C104.163 29.916 103.795 29.82 103.475 29.628C103.155 29.436 102.915 29.132 102.755 28.748L100.883 29.564C101.123 30.22 101.555 30.748 102.163 31.148Z" fill="white"/>
<rect x="1.49768" y="0.5" width="121" height="41" rx="6.5" stroke="#CCCCCC"/>
<defs>
<clipPath id="clip0_1820_23">
<rect width="24" height="24" fill="white" transform="translate(5.99768 9)"/>
</clipPath>
</defs>
</svg>
