<svg width="50" height="51" viewBox="0 0 50 51" fill="none" xmlns="http://www.w3.org/2000/svg">
<g id="Layer_2">
<g id="Group">
<g id="Clip path group">
<mask id="mask0_116_4351" style="mask-type:luminance" maskUnits="userSpaceOnUse" x="0" y="0" width="50" height="51">
<g id="SVGID_2_">
<path id="Vector" d="M49.9999 0H0.62793V51H49.9999V0Z" fill="white"/>
</g>
</mask>
<g mask="url(#mask0_116_4351)">
<path id="Vector_2" d="M24.4891 4.24207H25.7987C25.8319 4.24933 25.8646 4.26177 25.8978 4.26281C26.8023 4.28926 27.7012 4.38158 28.5927 4.53251C30.684 4.88572 32.6751 5.54286 34.5635 6.50963C36.6713 7.58896 38.5395 8.98985 40.1681 10.7066C41.6924 12.3129 42.9284 14.1188 43.8739 16.1219C44.891 18.2795 45.5123 20.5465 45.7442 22.9189C45.8355 23.8587 45.8624 24.7995 45.8251 25.7435C45.7826 26.8124 45.6643 27.871 45.4594 28.9197C45.0715 30.9077 44.4055 32.7983 43.4595 34.5897C42.4004 36.5943 41.0483 38.3795 39.4057 39.9407C37.8264 41.4427 36.0546 42.6652 34.0895 43.6081C31.9567 44.6319 29.713 45.2657 27.3625 45.5178C26.2183 45.6407 25.0711 45.6672 23.9207 45.5987C22.6733 45.524 21.4415 45.3487 20.2294 45.0474C16.1974 44.0448 12.7633 42.0189 9.93926 38.9729C7.83299 36.7022 6.32059 34.0804 5.39323 31.1245C4.82479 29.3118 4.51463 27.4551 4.46484 25.5563C4.4638 25.5225 4.45135 25.4893 4.44409 25.4567V24.4043C4.45135 24.3794 4.46328 24.355 4.46484 24.3301C4.47469 24.1242 4.4804 23.9173 4.49129 23.7119C4.54471 22.714 4.67593 21.7275 4.87769 20.7504C5.26098 18.891 5.88751 17.1172 6.76249 15.4321C7.94554 13.1531 9.49736 11.1609 11.4185 9.45664C13.5802 7.5402 16.0355 6.13361 18.786 5.24411C20.5743 4.66581 22.4078 4.34061 24.2858 4.26644C24.3538 4.26385 24.4217 4.24985 24.4891 4.24207ZM39.5042 24.9422C39.499 17.0669 33.1507 10.6475 25.2707 10.5863C17.2316 10.524 10.8931 16.9948 10.7919 24.7425C10.6882 32.7277 17.1232 39.2965 25.1416 39.2975C33.1227 39.2981 39.5001 32.8221 39.5042 24.9422ZM6.76041 30.3808C6.90356 30.7496 7.04204 31.1054 7.18208 31.4653C7.25002 31.4394 7.29981 31.416 7.3522 31.4025C7.43363 31.3813 7.46786 31.3424 7.44141 31.2537C7.41703 31.1733 7.40769 31.0893 7.3911 31.0047C8.03527 30.7542 8.66751 30.5094 9.3288 30.2532C9.29249 30.3046 9.2759 30.3294 9.25774 30.3538C8.72819 31.0613 8.19813 31.7692 7.6691 32.4777C7.64524 32.5094 7.61308 32.5592 7.62242 32.5872C7.70748 32.8268 7.80187 33.0638 7.88849 33.2915C7.91235 33.2956 7.9165 33.2977 7.92013 33.2967C8.17634 33.2241 8.1779 33.2236 8.12344 32.9621C8.10736 32.8833 8.11722 32.8382 8.20591 32.8055C8.69707 32.6209 9.18617 32.429 9.67526 32.2391C9.92422 32.1427 10.1732 32.0452 10.4252 31.9471C10.4792 32.0363 10.5248 32.1178 10.5777 32.1945C10.5933 32.2168 10.6353 32.2428 10.6566 32.2365C10.7328 32.2142 10.8054 32.179 10.8874 32.1458C10.7447 31.7791 10.6078 31.4243 10.4667 31.0618C10.3993 31.0882 10.3433 31.1147 10.2847 31.1313C10.211 31.152 10.183 31.1847 10.2095 31.2651C10.2354 31.3455 10.2432 31.4321 10.2603 31.5234C9.62132 31.7718 8.98545 32.0177 8.34906 32.2651C8.36202 32.2122 8.38432 32.181 8.40766 32.1499C8.92684 31.458 9.44653 30.7672 9.96363 30.0748C9.99527 30.0323 10.0311 29.9674 10.0202 29.9249C9.98749 29.8025 9.932 29.6853 9.87961 29.552C8.9896 29.8969 8.10736 30.2382 7.22513 30.58C7.1577 30.4695 7.09702 30.3709 7.03634 30.2719C6.94298 30.3087 6.86051 30.3419 6.76041 30.3808ZM11.406 12.1495C11.9812 12.7475 12.5543 13.3445 13.13 13.9441C13.0678 14.0312 13.0107 14.1048 12.9609 14.1832C12.9469 14.206 12.9438 14.2532 12.9578 14.2713C13.0066 14.3346 13.0657 14.3901 13.1248 14.4534C13.4946 14.0934 13.8629 13.7558 14.2057 13.3953C14.6497 12.9285 14.6787 12.2346 14.282 11.7268C14.1196 11.5193 13.9365 11.3228 13.74 11.148C13.1938 10.6615 12.5087 10.6563 11.9589 11.1231C11.8101 11.2491 11.669 11.384 11.5352 11.5245C11.3339 11.7356 11.1425 11.9566 10.947 12.1734C10.9346 12.1718 10.9667 12.2008 10.9911 12.2346C11.0627 12.3357 11.1379 12.3575 11.2364 12.2667C11.2852 12.2221 11.3448 12.191 11.406 12.1495ZM17.1911 12.0624C17.6117 12.0281 17.9758 11.9068 18.2575 11.5982C18.397 11.4457 18.4597 11.2636 18.4613 11.0546C18.4623 10.8482 18.3965 10.6651 18.2995 10.4888C17.9416 9.83785 17.5832 9.18694 17.2243 8.53654C17.2103 8.51009 17.1916 8.48675 17.1704 8.45407C17.0573 8.51683 16.9505 8.57544 16.8441 8.63457C16.8763 8.72533 16.9027 8.79898 16.9344 8.88767C16.8887 8.87315 16.8602 8.86226 16.8312 8.855C16.3327 8.716 15.7902 9.09306 15.7632 9.6003C15.7347 10.1459 15.951 10.5982 16.3296 10.9696C16.6756 11.3077 17.133 11.3191 17.5215 11.0323C17.6729 10.9208 17.7647 10.7673 17.8234 10.5686C17.868 10.6495 17.9027 10.7092 17.9328 10.7714C17.9566 10.8202 17.9795 10.8705 17.995 10.9218C18.0708 11.1646 18.0101 11.3534 17.7922 11.4846C17.6703 11.5572 17.5324 11.6044 17.397 11.6506C17.3114 11.6801 17.2181 11.6863 17.1237 11.704C17.1465 11.8264 17.1673 11.9363 17.1911 12.0624ZM40.9814 28.7361C41.9953 28.9208 42.9979 29.1044 44.0077 29.289C44.0534 29.0421 44.0959 28.8134 44.1374 28.5852C44.1421 28.5588 44.1426 28.5318 44.1462 28.496C44.0726 28.4815 44.0056 28.4581 43.9382 28.4561C43.9035 28.455 43.8526 28.4835 43.8366 28.5131C43.793 28.5935 43.7852 28.7258 43.723 28.7569C43.6519 28.7927 43.5378 28.7434 43.4424 28.7263C43.2494 28.6915 43.057 28.6537 42.8646 28.6179C42.861 28.608 42.8568 28.5992 42.8532 28.5894C42.8672 28.5826 42.8833 28.5779 42.8952 28.5686C43.3428 28.2201 43.3589 27.5769 42.916 27.2263C42.5104 26.9048 42.0332 26.8 41.5311 26.87C41.0265 26.94 40.7423 27.3 40.7713 27.8093C40.7801 27.9722 40.8584 28.1298 40.9046 28.2896H40.7008C40.6614 28.4981 40.6219 28.7029 40.5841 28.9083C40.5778 28.942 40.5784 28.9768 40.5753 29.0188C40.6354 29.0318 40.6925 29.0432 40.748 29.0572C40.8232 29.0753 40.8724 29.0629 40.8942 28.9763C40.9124 28.898 40.9487 28.8238 40.9814 28.7361ZM31.5273 6.64033C31.3769 6.89447 31.3748 6.89914 31.6035 7.04074C31.6819 7.08897 31.6959 7.12891 31.6585 7.215C31.3261 7.9821 30.9988 8.75126 30.67 9.51939C30.6124 9.65476 30.5559 9.79013 30.4962 9.93328C30.5387 9.95247 30.573 9.96855 30.6082 9.98411C30.6834 10.0157 30.7701 10.0847 30.8313 10.0671C30.8951 10.0484 30.9339 9.94625 30.9843 9.87986C30.9884 9.87467 30.9977 9.87364 31.005 9.87052C31.1186 10.4047 31.9293 10.746 32.437 10.258C32.8193 9.89127 32.9883 9.42707 32.9832 8.90167C32.979 8.48208 32.7083 8.14962 32.2949 8.08012C32.1263 8.05212 31.9474 8.08479 31.7773 8.08998C31.9303 7.73003 32.0947 7.34571 32.2617 6.95256C32.0081 6.8452 31.7664 6.74199 31.5273 6.64033ZM43.4382 23.8717H43.1525C43.1353 23.9624 43.1255 24.0516 43.0996 24.1357C43.0887 24.1688 43.0441 24.2145 43.0145 24.2145C42.5047 24.2145 41.9943 24.2093 41.4839 24.2C41.4554 24.2 41.4118 24.1528 41.4025 24.1206C41.3781 24.0324 41.3672 23.9396 41.3501 23.8462H41.0607V25.0106C41.1204 25.0106 41.1785 25.006 41.235 25.0122C41.3206 25.0215 41.3527 24.9873 41.3595 24.9027C41.3657 24.8229 41.3906 24.7446 41.4072 24.6668C41.8563 24.6668 42.2962 24.6662 42.7355 24.6673C42.7541 24.6673 42.7738 24.6735 42.791 24.6813C42.9922 24.7689 43.1328 25.0516 43.1011 25.3006C43.0684 25.5521 42.959 25.6564 42.6779 25.7004C42.6322 25.7077 42.5845 25.7103 42.5384 25.7093C42.1955 25.7046 41.8532 25.6953 41.5104 25.6947C41.4207 25.6947 41.3844 25.675 41.3724 25.5765C41.3413 25.3213 41.3346 25.3218 41.0737 25.3389C41.0669 25.3389 41.0602 25.3457 41.0389 25.3555V26.4909H41.3195C41.3434 26.3721 41.3662 26.259 41.389 26.1439C41.4108 26.1429 41.4258 26.1408 41.4409 26.1408C41.846 26.1475 42.2516 26.1652 42.6556 26.1558C43.2728 26.1413 43.6213 25.6641 43.431 25.0889C43.3796 24.9344 43.2603 24.8011 43.1696 24.6543C43.222 24.6502 43.2951 24.6502 43.3646 24.6356C43.3926 24.6304 43.4351 24.5941 43.4351 24.5718C43.4403 24.3426 43.4382 24.1139 43.4382 23.8717ZM9.98957 20.1363C9.91851 20.113 9.85731 20.0989 9.80233 20.073C9.72661 20.0372 9.6903 20.0637 9.65866 20.1327C9.62391 20.2089 9.58035 20.282 9.53782 20.3619C9.13326 20.2291 8.73909 20.0969 8.34283 19.9734C8.24014 19.9418 8.17531 19.8821 8.12863 19.7919C8.00622 19.5512 8.0389 19.3199 8.19605 19.113C8.24688 19.0461 8.34543 19.0072 8.42997 18.9787C8.48806 18.9584 8.5643 18.9652 8.62498 18.9828C9.03679 19.1088 9.44705 19.2416 9.86146 19.3728C9.84642 19.4771 9.8293 19.5684 9.82308 19.6602C9.821 19.6908 9.84175 19.7385 9.86561 19.7499C9.93459 19.7826 10.0103 19.8002 10.0917 19.8256C10.1545 19.6342 10.2131 19.4537 10.2722 19.2738C10.3319 19.0907 10.3915 18.9081 10.4532 18.7193C10.3827 18.696 10.3251 18.6841 10.2733 18.6592C10.1965 18.6229 10.1545 18.6436 10.1218 18.7198C10.0881 18.7966 10.0425 18.8692 10.0031 18.9423C9.96675 18.9315 9.94029 18.9247 9.91436 18.9159C9.52589 18.7919 9.14156 18.6503 8.74738 18.5466C8.17634 18.3962 7.72926 18.7541 7.74378 19.3453C7.74793 19.5108 7.81951 19.6752 7.85841 19.8334C7.78943 19.8189 7.69555 19.7997 7.59182 19.7779C7.51298 20.0196 7.43622 20.2535 7.3605 20.4853C7.61619 20.6212 7.62709 20.6181 7.74638 20.391C7.75208 20.3801 7.75831 20.3707 7.76194 20.3593C7.78839 20.2836 7.83403 20.2784 7.90716 20.3033C8.22717 20.4117 8.54978 20.5149 8.87082 20.6202C9.04665 20.6772 9.22195 20.7369 9.39985 20.7955C9.38429 20.8915 9.36562 20.9755 9.35992 21.06C9.35784 21.0953 9.3734 21.1534 9.39778 21.1648C9.46935 21.198 9.54871 21.2146 9.6291 21.239C9.75047 20.8666 9.86768 20.5087 9.98957 20.1363ZM39.7791 13.9689C39.6334 13.7687 39.4949 13.5779 39.3554 13.387C39.1941 13.1676 39.1936 13.1676 38.9814 13.344C38.9762 13.3492 38.9757 13.358 38.9674 13.3798C39.108 13.5099 39.0188 13.6282 38.9347 13.7563C38.6536 14.1863 38.3616 14.61 38.1111 15.0576C37.9649 15.319 37.7698 15.4295 37.4898 15.4585C37.3046 15.4788 37.1573 15.4544 37.0707 15.2713C37.0582 15.2443 37.0344 15.2231 37.0116 15.1935C36.9068 15.2516 36.8067 15.3076 36.7097 15.3621C36.7968 15.6499 37.0396 15.8911 37.3305 15.8719C37.4882 15.861 37.65 15.8532 37.8015 15.8117C38.5359 15.611 39.2688 15.4041 39.9995 15.1904C40.1448 15.1479 40.2677 15.1245 40.3647 15.2682C40.3673 15.2729 40.3787 15.2718 40.3917 15.2744C40.4617 15.221 40.5348 15.166 40.6131 15.1069C40.4181 14.8403 40.2303 14.5841 40.0369 14.3201C39.9565 14.3808 39.8491 14.4228 39.8263 14.4923C39.805 14.5576 39.874 14.6525 39.9062 14.7407C39.4394 14.8896 38.9721 15.0384 38.496 15.1899C38.7864 14.7729 39.0675 14.3699 39.3689 13.9373C39.428 14.0198 39.4757 14.0867 39.5255 14.1567C39.6209 14.0867 39.6951 14.0317 39.7791 13.9689ZM22.8704 7.81872C22.7257 7.84258 22.5851 7.8654 22.4441 7.88926C22.1759 7.93334 21.9197 8.00751 21.7154 8.19993C21.512 8.39184 21.4928 8.62731 21.5639 8.87937C21.6313 9.11951 21.7833 9.28029 22.0359 9.3249C22.4036 9.39025 22.7127 9.28548 22.9529 8.994C22.9783 8.96288 23.0027 8.9302 23.0384 8.88508C23.0654 8.96703 23.0805 9.03134 23.1085 9.08943C23.1219 9.11795 23.1624 9.1553 23.1857 9.15219C23.3574 9.13144 23.5286 9.10084 23.7075 9.07283C23.6956 8.99088 23.6919 8.91983 23.6717 8.85396C23.6624 8.8244 23.6183 8.7829 23.5934 8.7855C23.4907 8.79587 23.4731 8.74037 23.4606 8.65635C23.401 8.25958 23.3398 7.86436 23.2729 7.47018C23.2174 7.14135 23.0322 6.91781 22.7008 6.85402C22.2262 6.76429 21.8082 6.89966 21.4508 7.22227C21.4285 7.24197 21.4104 7.28243 21.4135 7.31044C21.4306 7.44892 21.4555 7.58532 21.4794 7.73625C21.5981 7.71758 21.7071 7.70047 21.8186 7.68231C21.8217 7.64964 21.8295 7.6263 21.8258 7.60503C21.7885 7.40068 21.9192 7.31562 22.0769 7.25753C22.1635 7.2259 22.2563 7.20256 22.3481 7.19478C22.6152 7.17247 22.7848 7.31147 22.8294 7.57599C22.8429 7.65171 22.8554 7.72744 22.8704 7.81872ZM8.11047 27.7854C8.13744 27.9244 8.16078 28.0463 8.18464 28.1672C8.24118 28.4529 8.31897 28.7294 8.53992 28.9379C8.73338 29.1215 8.96159 29.1365 9.2038 29.0603C9.42838 28.9892 9.5902 28.8482 9.63481 28.6132C9.70742 28.2289 9.59435 27.9063 9.27849 27.663C9.24581 27.6376 9.21366 27.6138 9.17113 27.5821C9.24893 27.5526 9.31531 27.5329 9.37703 27.5038C9.40141 27.4919 9.43409 27.454 9.43045 27.4343C9.40297 27.2585 9.36822 27.0837 9.33502 26.9074C9.27382 26.9167 9.22766 26.9224 9.18306 26.9312C9.13845 26.9411 9.09488 26.954 9.05391 26.9649C9.04406 27.147 9.04406 27.1475 8.87031 27.1802C8.49584 27.2517 8.12137 27.3202 7.74741 27.3949C7.41599 27.4618 7.19764 27.6589 7.14733 27.996C7.07679 28.468 7.22565 28.8782 7.55655 29.2221C7.57626 29.2418 7.61101 29.2662 7.63435 29.2621C7.77853 29.2377 7.92168 29.2071 8.07313 29.1754C8.05602 29.0909 8.03268 29.0198 8.02956 28.9477C8.0249 28.857 7.98652 28.8176 7.89834 28.8352C7.7469 28.8648 7.65406 28.7813 7.60634 28.6594C7.55499 28.5282 7.51246 28.386 7.50209 28.246C7.48757 28.0603 7.60375 27.9089 7.7749 27.856C7.87967 27.8254 7.98859 27.8114 8.11047 27.7854ZM9.14053 17.6416C9.1732 17.5793 9.20121 17.529 9.22766 17.4777C9.3039 17.3283 9.30598 17.3252 9.1732 17.2287C9.10059 17.1763 9.06325 17.1058 9.08503 17.029C9.1286 16.8781 9.17165 16.7204 9.25048 16.5871C9.35369 16.4118 9.54248 16.3527 9.71675 16.4165C9.82463 16.4559 9.92525 16.5176 10.0357 16.5726C9.97816 16.6831 9.92681 16.7821 9.87442 16.8817C9.75876 17.0996 9.66281 17.3231 9.64725 17.5746C9.61717 18.0368 10.0777 18.4154 10.5165 18.2743C10.8194 18.1758 10.9802 17.9304 11.0352 17.6348C11.0684 17.4595 11.0326 17.2702 11.0279 17.0861C11.0746 17.1006 11.1394 17.125 11.2063 17.1405C11.2317 17.1462 11.2779 17.1431 11.2867 17.1281C11.3744 16.9699 11.4563 16.8096 11.5429 16.6442C11.4641 16.6032 11.4039 16.5664 11.3396 16.541C11.3153 16.5316 11.2603 16.5363 11.253 16.5519C11.1934 16.6717 11.1182 16.6297 11.0347 16.5851C10.7012 16.4082 10.3666 16.2329 10.0316 16.0581C9.6903 15.8807 9.36977 15.9092 9.10941 16.1743C8.7951 16.4938 8.67062 16.8931 8.70693 17.3387C8.71004 17.3781 8.74064 17.4299 8.77435 17.4497C8.88794 17.5171 9.00775 17.5736 9.14053 17.6416ZM39.5193 32.5327C39.5364 32.5379 39.5545 32.5431 39.5722 32.5503C39.9472 32.722 40.3216 32.8937 40.6966 33.0659C40.9585 33.1852 41.2132 33.1919 41.4611 33.0233C41.8159 32.7817 42.0581 32.1095 41.9388 31.6837C41.931 31.6577 41.9082 31.6276 41.8849 31.6157C41.7599 31.554 41.6328 31.4975 41.4964 31.4357C41.4461 31.5462 41.3989 31.6468 41.3517 31.75C41.3812 31.7744 41.402 31.8004 41.429 31.8123C41.5944 31.8875 41.61 32.0223 41.5695 32.1743C41.5446 32.2671 41.5156 32.3615 41.472 32.4466C41.347 32.6909 41.1333 32.7619 40.8844 32.6515C40.8107 32.6188 40.7381 32.5825 40.6582 32.5446C40.7262 32.3953 40.7915 32.2547 40.8538 32.1136C40.9492 31.8973 41.0114 31.6743 40.986 31.4342C40.9471 31.0602 40.5753 30.7786 40.2029 30.8429C39.8984 30.8958 39.6137 31.2195 39.5991 31.5602C39.5919 31.734 39.6272 31.9108 39.6427 32.0872C39.594 32.0742 39.5291 32.0503 39.4617 32.04C39.4321 32.0353 39.3803 32.0509 39.3699 32.0727C39.2921 32.2277 39.2226 32.387 39.1515 32.5431C39.3922 32.6904 39.3922 32.6904 39.5193 32.5327ZM36.065 12.9296C35.968 12.8564 35.9343 12.7942 36.0277 12.6837C36.2865 12.3777 36.5308 12.0603 36.7766 11.7434C36.9234 11.5546 36.9742 11.342 36.9125 11.106C36.7865 10.6215 36.1506 10.2507 35.7004 10.2502C35.6734 10.2502 35.6376 10.2647 35.621 10.2849C35.5318 10.3918 35.4473 10.5022 35.3555 10.6179C35.4514 10.6936 35.5391 10.7637 35.6288 10.8347C35.6491 10.8191 35.6646 10.8083 35.6791 10.7963C35.855 10.6449 35.9437 10.6298 36.1433 10.7496C36.2419 10.8093 36.3347 10.8855 36.4104 10.9716C36.5297 11.1065 36.5375 11.2735 36.4416 11.4249C36.3819 11.5188 36.3083 11.6039 36.2357 11.6983C36.1713 11.6474 36.1174 11.6049 36.0635 11.5613C35.8373 11.3824 35.6159 11.1983 35.3259 11.1267C34.8882 11.0199 34.4733 11.3404 34.4727 11.7901C34.4727 12.1033 34.7741 12.4508 35.1231 12.5219C35.2606 12.5504 35.4037 12.5473 35.5521 12.5587C35.5184 12.6199 35.4815 12.6759 35.4582 12.7356C35.4473 12.7646 35.4483 12.818 35.4665 12.8336C35.5993 12.9456 35.7377 13.0509 35.8804 13.164C35.9457 13.082 36.0017 13.0105 36.065 12.9296ZM8.40818 23.4298C8.46627 23.4235 8.56845 23.4194 8.66647 23.3992C9.10318 23.3084 9.40608 22.9951 9.47402 22.5678C9.55026 22.0885 9.38326 21.7094 8.97922 21.4781C8.63224 21.2799 8.25362 21.2198 7.86411 21.2934C7.46371 21.3691 7.17534 21.5963 7.06279 22.0019C6.94868 22.4111 7.01144 22.7825 7.33975 23.0786C7.6302 23.3421 7.98703 23.4168 8.40818 23.4298ZM40.778 19.2857C41.1136 19.2608 41.5114 19.1062 41.818 18.7644C42.3345 18.1893 42.0311 17.2422 41.276 17.0767C40.8087 16.9746 40.3979 17.1322 40.0333 17.4092C39.6453 17.7033 39.5182 18.1421 39.6681 18.571C39.832 19.0399 40.1738 19.2857 40.778 19.2857ZM28.351 8.98518C27.9859 8.92916 27.6343 8.87419 27.2785 8.81973C27.3179 8.56403 27.3552 8.31819 27.3931 8.07234C27.4771 7.53087 27.5622 6.98939 27.642 6.44791C27.6529 6.37271 27.6825 6.34833 27.7541 6.3504C27.8412 6.35403 27.9294 6.35144 28.0181 6.35144C28.0331 6.24564 28.0456 6.1585 28.0601 6.05684C27.6732 5.99772 27.2961 5.94015 26.9206 5.88361C26.8418 6.16732 26.8418 6.16732 27.0975 6.25342C27.1011 6.25445 27.1052 6.25549 27.1089 6.25601C27.195 6.26742 27.2079 6.31565 27.1955 6.39605C27.1006 6.99458 27.0103 7.59518 26.918 8.19371C26.889 8.38094 26.8578 8.5661 26.8272 8.75853C26.7225 8.75853 26.6333 8.7549 26.544 8.7606C26.516 8.76216 26.4699 8.78498 26.4647 8.80469C26.4455 8.88508 26.4403 8.96858 26.4289 9.05364C27.2012 9.1719 27.9558 9.28704 28.7157 9.40322C28.753 9.15374 28.7877 8.92553 28.8235 8.6911C28.7136 8.67295 28.6182 8.65946 28.5232 8.63975C28.4584 8.62679 28.4304 8.6522 28.4179 8.7134C28.3982 8.80002 28.3754 8.8856 28.351 8.98518ZM42.5332 19.2297C42.445 19.2546 42.3719 19.281 42.2967 19.2961C42.2256 19.3106 42.2064 19.3391 42.2308 19.4097C42.2604 19.4958 42.2801 19.5844 42.306 19.6788C41.7614 19.837 41.2282 19.9906 40.6878 20.1461C40.6323 20.0383 40.5784 19.9325 40.5229 19.8241C40.4269 19.8515 40.3424 19.8764 40.2423 19.906C40.3502 20.2805 40.4565 20.6472 40.5649 21.0222C40.6302 21.0045 40.6811 20.9838 40.734 20.977C40.8299 20.9646 40.8543 20.9132 40.8387 20.8245C40.8252 20.7457 40.8211 20.6643 40.8123 20.5813C41.3589 20.4247 41.8916 20.2706 42.4315 20.115C42.4808 20.2779 42.527 20.4288 42.5747 20.5886C42.6893 20.5543 42.791 20.5237 42.8978 20.4916C42.8729 20.4039 42.8516 20.3292 42.8304 20.2545C42.8091 20.1778 42.7878 20.1005 42.7645 20.0191C42.8833 19.9848 42.9906 19.9496 43.1001 19.9236C43.3506 19.8666 43.5067 19.9651 43.5663 20.2162C43.5788 20.2691 43.5871 20.3215 43.599 20.3827C43.6976 20.3718 43.7909 20.365 43.8812 20.3469C43.903 20.3422 43.9294 20.3033 43.9341 20.2763C43.9413 20.2405 43.931 20.1996 43.9273 20.1607C43.8843 19.6835 43.5425 19.4019 43.0736 19.4688C42.9294 19.4885 42.7894 19.5383 42.638 19.5767C42.6037 19.4641 42.5705 19.3536 42.5332 19.2297ZM43.7302 22.4998C42.9025 22.5973 42.0845 22.6943 41.263 22.7918C41.2257 22.6725 41.1914 22.5636 41.1551 22.4454C41.0524 22.4599 40.9591 22.4728 40.8647 22.4853C40.9108 22.8784 40.9559 23.2519 41.0011 23.6357C41.0747 23.6268 41.1354 23.6149 41.1961 23.6149C41.2703 23.616 41.2993 23.5859 41.3003 23.5122C41.3003 23.4241 41.3097 23.3354 41.3149 23.243C41.7044 23.1953 42.0861 23.1486 42.4684 23.1025C42.8739 23.0537 43.2795 23.0076 43.6846 22.9578C43.7567 22.9484 43.8013 22.9614 43.8169 23.0434C43.8335 23.1253 43.8646 23.2057 43.8926 23.2944C43.9937 23.2809 44.0881 23.2695 44.1872 23.2565C44.14 22.8644 44.0949 22.4884 44.0487 22.103C43.9419 22.1155 43.8547 22.1274 43.7588 22.1393C43.7494 22.2602 43.7406 22.3743 43.7302 22.4998ZM25.069 8.73363C24.9933 8.72378 24.9243 8.70614 24.8553 8.7077C24.75 8.71029 24.7163 8.66413 24.7116 8.56351C24.6795 7.89081 24.6432 7.21863 24.6079 6.54646C24.5918 6.23993 24.5747 5.93444 24.5571 5.61495C24.2853 5.62947 24.0234 5.64347 23.7666 5.65696V5.95208C23.8626 5.96349 23.9466 5.97801 24.0317 5.98423C24.1089 5.99046 24.1338 6.02728 24.1364 6.103C24.1437 6.34833 24.1577 6.59262 24.1702 6.83794C24.2013 7.43595 24.2324 8.03552 24.2651 8.63353C24.2687 8.69784 24.2428 8.72274 24.1805 8.73311C24.0939 8.74763 24.0088 8.77305 23.9248 8.79328C23.9248 8.85448 23.9295 8.90582 23.9238 8.9551C23.9098 9.06868 23.9606 9.09306 24.0643 9.08372C24.3169 9.06453 24.5695 9.05468 24.8221 9.04016C25.1286 9.022 25.1141 9.09565 25.069 8.73363ZM9.35318 14.4383C10.1006 14.9492 10.8448 15.458 11.5912 15.9678C11.5481 16.0638 11.5051 16.1468 11.474 16.2339C11.4641 16.2614 11.4734 16.3133 11.4937 16.3309C11.5512 16.3797 11.6192 16.416 11.6892 16.4616C11.9107 16.1375 12.1244 15.8242 12.3432 15.5031C12.2836 15.4611 12.2307 15.4284 12.1835 15.389C12.1249 15.3387 12.0823 15.3387 12.0294 15.4025C11.9755 15.4679 11.9065 15.5208 11.8375 15.5851C11.0004 15.013 10.1571 14.4373 9.30546 13.8554C9.14934 14.0846 9.00205 14.3014 8.85008 14.5244C8.91387 14.5685 8.96781 14.6002 9.01449 14.6401C9.07051 14.6883 9.11096 14.6857 9.16023 14.6292C9.21625 14.5654 9.2816 14.5078 9.35318 14.4383ZM7.27233 26.8026C7.27233 26.7066 7.28218 26.6319 7.27025 26.5593C7.25262 26.4535 7.28166 26.4203 7.39421 26.4157C7.85685 26.3923 8.31949 26.3617 8.78058 26.3233C9.0119 26.3047 9.20484 26.2051 9.28264 25.9681C9.3511 25.7596 9.3122 25.5521 9.22818 25.3535C9.21729 25.3275 9.16957 25.2985 9.14364 25.3031C9.05702 25.3182 8.97404 25.3478 8.88638 25.3726C8.90039 25.4375 8.9118 25.4909 8.92217 25.5438C8.96315 25.7507 8.8869 25.8607 8.67737 25.8773C8.33246 25.9048 7.98652 25.9255 7.64057 25.9478C7.50624 25.9572 7.37243 25.965 7.23602 25.9738C7.22202 25.8151 7.20957 25.674 7.19608 25.5272C7.07835 25.5371 6.97617 25.5459 6.87763 25.5547V25.9966C6.69351 26.0111 6.5099 26.0262 6.32267 26.0407C6.33304 26.1994 6.34134 26.3379 6.35067 26.4852C6.54361 26.4743 6.72462 26.4639 6.91393 26.4535C6.92638 26.5775 6.93831 26.6921 6.95128 26.8192C7.06071 26.8135 7.16341 26.8078 7.27233 26.8026ZM21.2008 9.15789C21.1428 9.18331 21.0935 9.20561 21.0437 9.22583C20.83 9.31401 20.7237 9.26473 20.6552 9.04431C20.6091 8.89597 20.5655 8.7466 20.5219 8.59722C20.4332 8.29173 20.3456 7.98676 20.2559 7.67609C20.4026 7.62993 20.5411 7.58688 20.6843 7.54228C20.6495 7.42765 20.6194 7.32911 20.5873 7.22278C20.4374 7.26376 20.3005 7.30162 20.1589 7.34C20.1039 7.15588 20.0515 6.98265 19.9965 6.79749C19.8497 6.84053 19.7133 6.87995 19.566 6.923C19.6189 7.11024 19.6682 7.28762 19.719 7.46915C19.5951 7.50804 19.482 7.54331 19.3638 7.58066C19.3985 7.69528 19.4291 7.79694 19.4608 7.90119C19.5904 7.8654 19.7014 7.8348 19.8186 7.80264C19.8798 8.01166 19.9374 8.2129 19.997 8.41414C20.0816 8.70199 20.1609 8.98985 20.2543 9.27459C20.3207 9.4779 20.4483 9.63402 20.6739 9.66877C20.9016 9.70248 21.1033 9.62105 21.2864 9.49191C21.3113 9.47427 21.3315 9.41566 21.3212 9.38817C21.2911 9.30934 21.2444 9.23725 21.2008 9.15789ZM33.7482 9.12262C33.8177 9.18331 33.8789 9.24347 33.9479 9.29378C34.0132 9.3415 34.0096 9.38351 33.9696 9.44886C33.7503 9.80725 33.5355 10.1688 33.3193 10.5292C33.2674 10.6153 33.215 10.7009 33.1611 10.7917C33.0656 10.7554 32.98 10.719 32.8914 10.6931C32.8634 10.6843 32.8125 10.6936 32.7975 10.7139C32.7513 10.7751 32.7176 10.8456 32.6746 10.9192C33.0117 11.1215 33.34 11.3181 33.673 11.5173C33.728 11.4255 33.7736 11.3492 33.8234 11.2662C33.7337 11.1848 33.645 11.1044 33.5542 11.023C33.7658 10.6698 33.9722 10.3259 34.1781 9.98204C34.2912 9.79324 34.4785 9.72478 34.6864 9.8088C34.7715 9.84252 34.8446 9.90631 34.9286 9.94573C34.9598 9.95973 35.022 9.95559 35.0433 9.93432C35.12 9.85341 35.1864 9.76161 35.2627 9.66566C35.0179 9.41514 34.743 9.40685 34.4318 9.54325C34.4784 9.43485 34.5158 9.3472 34.5547 9.25799C34.3296 9.12314 34.118 8.99659 33.9007 8.86692C33.8457 8.95821 33.798 9.0386 33.7482 9.12262ZM37.5764 11.914C37.6474 12.0209 37.7107 12.1179 37.7776 12.218C37.3746 12.6064 36.9779 12.9897 36.5775 13.3761C36.4789 13.3056 36.3845 13.2382 36.2834 13.1655C36.2128 13.233 36.147 13.2963 36.0702 13.3704C36.3456 13.6557 36.6112 13.9295 36.8803 14.2075C36.9581 14.1339 37.0225 14.0737 37.0935 14.0068C37.0261 13.9031 36.9607 13.8035 36.8954 13.7029C37.1832 13.4244 37.4664 13.1515 37.7475 12.8767C37.942 12.6863 38.1785 12.6848 38.373 12.8787C38.4363 12.9415 38.4934 13.01 38.5598 13.0826C38.6749 12.9985 38.7859 12.9181 38.899 12.8346C38.7273 12.5266 38.4654 12.4508 38.1303 12.5012C38.204 12.4068 38.26 12.3336 38.3212 12.2548C38.1376 12.0779 37.9586 11.9063 37.7745 11.7299C37.7175 11.7833 37.6521 11.8435 37.5764 11.914ZM8.90506 24.1891C8.22354 24.1704 7.55499 24.1512 6.87037 24.1315V24.9349H7.152C7.17015 24.853 7.19556 24.7731 7.20179 24.6927C7.20853 24.6024 7.25158 24.59 7.33145 24.5931C7.63072 24.6056 7.93102 24.6097 8.23028 24.619C8.45071 24.6263 8.67062 24.6372 8.89624 24.646C8.90454 24.7088 8.91024 24.7622 8.91906 24.8151C8.95174 25.0106 8.95225 25.008 9.14727 25.0122C9.21729 25.0137 9.24426 24.992 9.24478 24.9193C9.24529 24.7871 9.25774 24.6548 9.25982 24.5226C9.26241 24.298 9.26033 24.0739 9.26033 23.8436H8.98337C8.95744 23.9567 8.93254 24.0693 8.90506 24.1891ZM30.1108 9.82281C30.13 9.75694 30.1404 9.70352 30.1606 9.65476C30.1959 9.57126 30.1835 9.51888 30.0896 9.48672C30.0139 9.46027 29.9444 9.41566 29.8686 9.37884C30.0548 8.72533 30.2384 8.08064 30.4246 7.42713C30.1549 7.35089 29.9039 7.2788 29.6466 7.20567C29.6171 7.30992 29.5927 7.39913 29.5678 7.48937C29.6798 7.54591 29.7836 7.59777 29.8899 7.65171C29.7364 8.18904 29.5849 8.71859 29.4314 9.2554C29.3329 9.24451 29.2442 9.23102 29.1555 9.22791C29.1238 9.22687 29.0704 9.24243 29.0611 9.26473C29.0305 9.33838 29.016 9.41774 28.9931 9.50332C29.3733 9.61171 29.7374 9.71545 30.1108 9.82281ZM18.6325 10.1044C18.6698 10.1962 18.7045 10.2818 18.7429 10.3778C19.106 10.2331 19.4608 10.0904 19.8243 9.94469C19.7844 9.84615 19.7507 9.76109 19.7154 9.67395C19.6267 9.69107 19.5468 9.69678 19.4753 9.72323C19.3793 9.75642 19.3482 9.71648 19.3155 9.63454C19.0961 9.0775 18.8721 8.52202 18.6491 7.96654C18.6356 7.93179 18.619 7.89859 18.6019 7.86021C18.3498 7.96031 18.1091 8.05678 17.87 8.15222C17.9209 8.4297 17.9359 8.44059 18.1833 8.38769C18.2248 8.37783 18.2668 8.37213 18.3192 8.36175C18.5256 8.87885 18.731 9.39388 18.9374 9.9115C18.8342 9.97737 18.7362 10.0396 18.6325 10.1044ZM40.1074 30.3632C40.1702 30.3849 40.2267 30.3984 40.2786 30.4228C40.36 30.4601 40.4082 30.4389 40.443 30.3585C40.4752 30.2843 40.5161 30.2138 40.5561 30.1365C41.2008 30.3419 41.8403 30.5457 42.4912 30.7532C42.5742 30.4939 42.654 30.2439 42.7339 29.996C42.4787 29.8601 42.4663 29.8632 42.3454 30.0981C42.3382 30.1116 42.3304 30.1256 42.3247 30.1396C42.3029 30.1993 42.2676 30.2076 42.207 30.1879C41.7334 30.0338 41.2604 29.8824 40.7853 29.7351C40.7075 29.7107 40.6914 29.6713 40.7039 29.5997C40.7189 29.5167 40.7283 29.4327 40.7407 29.3466C40.6608 29.3191 40.5919 29.2911 40.5203 29.2755C40.498 29.2703 40.4503 29.2937 40.444 29.3129C40.3299 29.6599 40.2205 30.0074 40.1074 30.3632ZM15.8421 11.6059C15.4469 11.0598 15.0532 10.5152 14.6523 9.96181C14.4329 10.1205 14.2197 10.2751 13.9967 10.4359C14.0584 10.5209 14.1134 10.5982 14.1699 10.677C14.2856 10.6226 14.3893 10.5733 14.4972 10.522C14.825 10.9763 15.1481 11.4234 15.4935 11.9016C15.396 11.9752 15.3027 12.0447 15.2088 12.1163C15.2825 12.2159 15.3369 12.2906 15.3976 12.3741C15.7176 12.1428 16.0272 11.9182 16.3353 11.6946C16.1885 11.4462 16.1891 11.4462 15.9562 11.5551C15.9209 11.5717 15.8851 11.5868 15.8421 11.6059ZM11.3484 35.2904C11.3521 34.9771 11.1119 34.7313 10.8007 34.7308C10.4968 34.7297 10.2494 34.9725 10.2463 35.2764C10.2432 35.5788 10.4844 35.8241 10.7919 35.8303C11.0953 35.8371 11.3448 35.5948 11.3484 35.2904ZM39.2449 35.6825C39.5582 35.683 39.7942 35.4533 39.7983 35.1441C39.8025 34.8314 39.5608 34.5887 39.247 34.5897C38.9394 34.5902 38.6982 34.8303 38.6982 35.1364C38.6982 35.4424 38.9373 35.682 39.2449 35.6825ZM6.27962 24.1128H5.82942V24.5532H6.27962V24.1128ZM30.1513 6.73991C30.3033 6.78348 30.4397 6.82238 30.5865 6.86387C30.6295 6.71346 30.67 6.57083 30.712 6.42094C30.5621 6.37789 30.4257 6.33899 30.2789 6.29698C30.2358 6.44584 30.1959 6.58587 30.1513 6.73991ZM43.625 30.6412C43.474 30.5929 43.3335 30.5483 43.1867 30.5011C43.1436 30.6329 43.1032 30.7496 43.0705 30.8683C43.0643 30.8906 43.083 30.9409 43.1011 30.9466C43.2266 30.9923 43.3553 31.0281 43.4891 31.0696C43.5363 30.9223 43.5788 30.7864 43.625 30.6412ZM14.3095 9.48879C14.2145 9.35705 14.129 9.24036 14.0387 9.11536C13.9116 9.20664 13.796 9.29015 13.6715 9.38039C13.7643 9.5085 13.8515 9.62883 13.9428 9.75486C14.0698 9.66202 14.1824 9.58008 14.3095 9.48879ZM17.7995 7.05422C17.8581 7.19996 17.912 7.33585 17.9707 7.48159C18.1159 7.42402 18.2507 7.36956 18.3918 7.31407C18.3311 7.16418 18.2761 7.02881 18.2181 6.88669C18.0733 6.94427 17.9411 6.99769 17.7995 7.05422Z" fill="white"/>
</g>
</g>
<g id="Clip path group_2">
<mask id="mask1_116_4351" style="mask-type:luminance" maskUnits="userSpaceOnUse" x="0" y="0" width="50" height="51">
<g id="SVGID_2__2">
<path id="Vector_3" d="M49.9999 0H0.62793V51H49.9999V0Z" fill="white"/>
</g>
</mask>
<g mask="url(#mask1_116_4351)">
<path id="Vector_4" d="M25.1485 38.7872C17.5372 38.7966 11.2439 32.5742 11.3009 24.8343C11.3569 17.2376 17.5606 11.0915 25.1537 11.0946C32.8361 11.0972 39.0682 17.3958 38.9946 25.0797C38.9215 32.6152 32.7593 38.7893 25.1485 38.7872ZM38.4142 25.3167C38.6253 20.8728 36.1902 15.2262 30.3341 12.7175C24.7077 10.3078 18.1005 12.0526 14.3999 17.1478C12.4892 19.7785 11.6749 22.7358 11.9052 25.978C12.0037 27.3628 12.3263 28.6968 12.8569 29.9784C12.8802 29.9732 12.8849 29.9732 12.8875 29.9706C12.9534 29.9161 13.0187 29.8606 13.0835 29.8051C14.0275 28.9908 15.0923 28.3773 16.238 27.8975C17.0824 27.5443 17.9553 27.2985 18.8723 27.2321C19.1124 27.2155 19.3525 27.2056 19.602 27.1921C19.6165 27.0075 19.6305 26.8255 19.6456 26.6429C19.7312 25.6325 19.9516 24.6528 20.3338 23.713C21.0875 21.8598 22.3436 20.475 24.1688 19.6249C24.1994 19.6109 24.2279 19.5923 24.2902 19.557C23.4852 19.4144 22.8203 19.0684 22.2762 18.5005C21.7275 17.9274 21.4049 17.2428 21.3146 16.4565C21.2244 15.6743 21.3836 14.9394 21.7809 14.2574C22.7845 12.536 25.0609 11.9836 26.733 13.0619C27.5831 13.6106 28.1313 14.3834 28.3108 15.3787C28.5618 16.7723 28.0992 17.9253 27.0053 18.8708C27.6308 18.8122 28.2174 18.8262 28.7988 18.9201C29.5805 19.0461 30.3377 19.2577 30.4974 19.3744C30.4731 19.3718 30.4528 19.3724 30.4342 19.3682C29.346 19.1514 28.2553 19.1291 27.1614 19.321C25.3088 19.6447 23.7264 20.4828 22.4427 21.8552C21.1414 23.2472 20.2581 24.8743 19.811 26.7316C19.7737 26.8846 19.7457 27.0397 19.7115 27.203C21.3131 27.2508 22.7637 27.7321 24.0884 28.5873C24.105 28.5687 24.1117 28.563 24.1154 28.5567C24.996 27.0511 26.1604 25.8141 27.6194 24.8582C28.8315 24.0657 30.1608 23.5864 31.6017 23.4272C32.3786 23.3416 33.1561 23.3556 33.9325 23.4651C35.2488 23.6502 36.4734 24.0906 37.6061 24.784C37.879 24.9515 38.1398 25.1346 38.4142 25.3167ZM15.5026 34.0467C18.183 36.9968 22.9484 39.0938 28.1863 37.8723C33.2245 36.6976 36.4418 32.8662 37.5719 29.5961C36.0149 29.0469 33.9584 28.7798 31.8356 29.3207C28.6687 30.1272 26.4498 32.1069 24.9514 34.9559C24.773 34.8086 24.5977 34.6535 24.4136 34.5109C23.0947 33.485 21.603 32.9466 19.9293 32.929C19.0108 32.9186 18.1161 33.0737 17.2406 33.346C16.6452 33.5296 16.0705 33.764 15.5026 34.0467ZM24.3851 31.2817C24.396 31.2631 24.4126 31.2371 24.4271 31.2097C25.1086 29.9799 25.983 28.9068 27.0702 28.0147C29.179 26.285 31.5882 25.5957 34.294 25.9707C35.4143 26.1263 36.4708 26.4847 37.4718 27.0065C37.7125 27.1325 37.9469 27.2705 38.1886 27.4048C38.1984 27.3804 38.2114 27.3597 38.2145 27.3379C38.2716 26.9058 38.3266 26.4738 38.3852 26.0423C38.3971 25.9541 38.3686 25.9028 38.2902 25.854C36.3391 24.6461 34.2302 24.0875 31.932 24.3069C30.8444 24.4106 29.8092 24.7047 28.8289 25.1855C27.2216 25.9738 25.9416 27.1408 24.9208 28.5998C24.6781 28.9468 24.4649 29.3134 24.2347 29.676C24.148 29.6184 24.0526 29.5536 23.9551 29.4903C23.8566 29.4281 23.758 29.3653 23.6574 29.3057C21.5911 28.0822 19.3966 27.7637 17.0715 28.3736C15.6172 28.7554 14.3174 29.4514 13.1058 30.3279C13.0379 30.3772 13.0395 30.4203 13.0732 30.4835C13.3216 30.9462 13.5685 31.4093 13.8169 31.8715C13.8309 31.8974 13.8532 31.9187 13.875 31.9461C13.9134 31.9181 13.945 31.8958 13.9762 31.873C14.8382 31.2377 15.7463 30.6822 16.7364 30.2699C17.9952 29.7465 19.296 29.4742 20.6663 29.6215C21.6906 29.7304 22.6393 30.0577 23.5002 30.6225C23.8047 30.8212 24.0853 31.0567 24.3851 31.2817ZM14.1286 32.3445C14.1546 32.386 14.1665 32.4103 14.1826 32.4316C14.4637 32.7999 14.7474 33.166 15.0249 33.5374C15.0913 33.6266 15.1395 33.6235 15.2287 33.5654C16.9512 32.4223 18.8427 31.9622 20.8945 32.2018C22.1331 32.346 23.284 32.7604 24.3519 33.4036C24.5173 33.5032 24.6781 33.6105 24.8441 33.7148C24.8581 33.6961 24.8679 33.6847 24.8762 33.6717C25.2237 33.1017 25.6215 32.5691 26.0551 32.0618C26.8974 31.0784 27.8538 30.2273 28.9664 29.5593C30.359 28.7232 31.8625 28.2735 33.4927 28.2938C34.601 28.3062 35.6705 28.5365 36.7032 28.9328C37.0289 29.0578 37.3484 29.1999 37.6777 29.3373C37.6917 29.3036 37.7088 29.2688 37.7202 29.2331C37.8354 28.8368 37.9521 28.4421 38.0626 28.0453C38.1108 27.8726 38.1056 27.8705 37.9521 27.7927C36.1887 26.897 34.3282 26.5547 32.362 26.8068C31.2547 26.9473 30.2013 27.2668 29.2086 27.7715C27.2377 28.7735 25.746 30.2636 24.7206 32.2221C24.6968 32.2682 24.6703 32.3134 24.6423 32.3632C24.0946 31.9228 23.5194 31.5535 22.8986 31.2563C21.9661 30.8113 20.9853 30.5556 19.9506 30.5359C19.0932 30.5193 18.2509 30.6407 17.4247 30.8715C16.5388 31.1199 15.7194 31.524 14.9025 31.9363C14.6463 32.066 14.3942 32.2044 14.1286 32.3445ZM24.8425 18.9201C26.4187 18.9201 27.704 17.6385 27.706 16.0571C27.7081 14.5011 26.4654 13.1843 24.8296 13.1822C23.2487 13.1796 21.9655 14.4794 21.965 16.0473C21.9645 17.6354 23.2518 18.9201 24.8425 18.9201Z" fill="white"/>
</g>
</g>
<g id="Clip path group_3">
<mask id="mask2_116_4351" style="mask-type:luminance" maskUnits="userSpaceOnUse" x="0" y="0" width="50" height="51">
<g id="SVGID_2__3">
<path id="Vector_5" d="M49.9999 0H0.62793V51H49.9999V0Z" fill="white"/>
</g>
</mask>
<g mask="url(#mask2_116_4351)">
<path id="Vector_6" d="M13.4591 13.6293C12.8782 13.0245 12.3097 12.4322 11.7356 11.8353C11.8896 11.689 12.0292 11.5412 12.1832 11.412C12.5307 11.1195 12.9726 11.1034 13.3284 11.3996C13.5509 11.5842 13.7589 11.7969 13.9357 12.0256C14.262 12.4457 14.2101 12.9063 13.8294 13.2725C13.7096 13.3886 13.5888 13.5043 13.4591 13.6293Z" fill="white"/>
</g>
</g>
<g id="Clip path group_4">
<mask id="mask3_116_4351" style="mask-type:luminance" maskUnits="userSpaceOnUse" x="0" y="0" width="50" height="51">
<g id="SVGID_2__4">
<path id="Vector_7" d="M49.9999 0H0.62793V51H49.9999V0Z" fill="white"/>
</g>
</mask>
<g mask="url(#mask3_116_4351)">
<path id="Vector_8" d="M16.2043 9.76169C16.1924 9.50651 16.2676 9.34002 16.4528 9.22695C16.6545 9.10403 16.8573 9.10403 17.0591 9.22125C17.0897 9.2394 17.113 9.2757 17.1307 9.3089C17.2671 9.5537 17.4009 9.79903 17.5357 10.0449C17.6587 10.2689 17.6068 10.5148 17.404 10.673C17.1416 10.8768 16.8599 10.8669 16.6276 10.6299C16.3802 10.3784 16.2391 10.0713 16.2043 9.76169Z" fill="white"/>
</g>
</g>
<g id="Clip path group_5">
<mask id="mask4_116_4351" style="mask-type:luminance" maskUnits="userSpaceOnUse" x="0" y="0" width="50" height="51">
<g id="SVGID_2__5">
<path id="Vector_9" d="M49.9999 0H0.62793V51H49.9999V0Z" fill="white"/>
</g>
</mask>
<g mask="url(#mask4_116_4351)">
<path id="Vector_10" d="M41.8268 27.3031C42.0483 27.3161 42.3206 27.3705 42.5649 27.5225C42.7407 27.632 42.86 27.7824 42.8434 27.9997C42.8252 28.2398 42.7091 28.4198 42.4824 28.5152C42.4492 28.5297 42.4067 28.5349 42.3714 28.5287C42.0727 28.4763 41.775 28.4219 41.4772 28.3648C41.2817 28.328 41.1334 28.1537 41.1189 27.9514C41.0898 27.536 41.3248 27.3005 41.8268 27.3031Z" fill="white"/>
</g>
</g>
<g id="Clip path group_6">
<mask id="mask5_116_4351" style="mask-type:luminance" maskUnits="userSpaceOnUse" x="0" y="0" width="50" height="51">
<g id="SVGID_2__6">
<path id="Vector_11" d="M49.9999 0H0.62793V51H49.9999V0Z" fill="white"/>
</g>
</mask>
<g mask="url(#mask5_116_4351)">
<path id="Vector_12" d="M32.5356 9.02983C32.5112 9.30005 32.4049 9.60917 32.1876 9.87109C32.0413 10.048 31.8515 10.1341 31.6165 10.0568C31.379 9.97898 31.225 9.82286 31.1855 9.57027C31.1778 9.51945 31.1918 9.46136 31.2115 9.41312C31.3121 9.16883 31.4174 8.92662 31.5211 8.68441C31.6228 8.44583 31.866 8.32861 32.1191 8.39655C32.4044 8.4728 32.5408 8.65744 32.5356 9.02983Z" fill="white"/>
</g>
</g>
<g id="Clip path group_7">
<mask id="mask6_116_4351" style="mask-type:luminance" maskUnits="userSpaceOnUse" x="0" y="0" width="50" height="51">
<g id="SVGID_2__7">
<path id="Vector_13" d="M49.9999 0H0.62793V51H49.9999V0Z" fill="white"/>
</g>
</mask>
<g mask="url(#mask6_116_4351)">
<path id="Vector_14" d="M22.9183 8.13159C22.9364 8.24725 22.9593 8.35358 22.967 8.46094C22.9701 8.5071 22.9535 8.5626 22.9266 8.6015C22.7596 8.84474 22.5272 8.96611 22.23 8.9407C22.0023 8.92202 21.9012 8.63573 22.048 8.43293C22.1538 8.28771 22.3073 8.22806 22.4769 8.19954C22.618 8.17568 22.7606 8.15545 22.9183 8.13159Z" fill="white"/>
</g>
</g>
<g id="Clip path group_8">
<mask id="mask7_116_4351" style="mask-type:luminance" maskUnits="userSpaceOnUse" x="0" y="0" width="50" height="51">
<g id="SVGID_2__8">
<path id="Vector_15" d="M49.9999 0H0.62793V51H49.9999V0Z" fill="white"/>
</g>
</mask>
<g mask="url(#mask7_116_4351)">
<path id="Vector_16" d="M8.42065 27.7294C8.60893 27.7055 8.78631 27.5925 8.96472 27.7501C9.16026 27.9234 9.27384 28.1324 9.25414 28.3948C9.23806 28.5981 9.00622 28.7071 8.80809 28.6173C8.67583 28.5577 8.59596 28.4503 8.54721 28.3181C8.52802 28.2672 8.51401 28.2149 8.50312 28.1609C8.47459 28.0209 8.4497 27.8808 8.42065 27.7294Z" fill="white"/>
</g>
</g>
<g id="Clip path group_9">
<mask id="mask8_116_4351" style="mask-type:luminance" maskUnits="userSpaceOnUse" x="0" y="0" width="50" height="51">
<g id="SVGID_2__9">
<path id="Vector_17" d="M49.9999 0H0.62793V51H49.9999V0Z" fill="white"/>
</g>
</mask>
<g mask="url(#mask8_116_4351)">
<path id="Vector_18" d="M10.3117 16.7173C10.4258 16.7769 10.5217 16.8215 10.6094 16.8775C10.6478 16.9019 10.683 16.9481 10.6986 16.9922C10.7914 17.2572 10.7541 17.5062 10.5809 17.7281C10.5083 17.822 10.4123 17.876 10.2842 17.834C10.1276 17.7821 10.0259 17.6623 10.0171 17.4896C10.0135 17.4138 10.0192 17.3293 10.0487 17.2614C10.1265 17.0798 10.2194 16.9061 10.3117 16.7173Z" fill="white"/>
</g>
</g>
<g id="Clip path group_10">
<mask id="mask9_116_4351" style="mask-type:luminance" maskUnits="userSpaceOnUse" x="0" y="0" width="50" height="51">
<g id="SVGID_2__10">
<path id="Vector_19" d="M49.9999 0H0.62793V51H49.9999V0Z" fill="white"/>
</g>
</mask>
<g mask="url(#mask9_116_4351)">
<path id="Vector_20" d="M40.3757 32.4166C40.2611 32.3647 40.1631 32.3273 40.0723 32.2765C40.0318 32.2542 39.9971 32.2091 39.9774 32.166C39.8721 31.9389 39.8923 31.7127 40.0075 31.4944C40.0884 31.3388 40.1963 31.2766 40.3301 31.2994C40.4826 31.3258 40.607 31.4451 40.6231 31.6054C40.6319 31.6961 40.6314 31.7957 40.6018 31.8797C40.5396 32.0582 40.4556 32.2288 40.3757 32.4166Z" fill="white"/>
</g>
</g>
<g id="Clip path group_11">
<mask id="mask10_116_4351" style="mask-type:luminance" maskUnits="userSpaceOnUse" x="0" y="0" width="50" height="51">
<g id="SVGID_2__11">
<path id="Vector_21" d="M49.9999 0H0.62793V51H49.9999V0Z" fill="white"/>
</g>
</mask>
<g mask="url(#mask10_116_4351)">
<path id="Vector_22" d="M36.0403 11.9394C35.9999 11.9918 35.9698 12.0323 35.9381 12.0707C35.7571 12.2937 35.6249 12.3393 35.3515 12.2439C35.2478 12.2076 35.1472 12.1464 35.0616 12.0769C34.92 11.9612 34.8889 11.843 34.9444 11.72C35.0103 11.5717 35.1555 11.4846 35.3225 11.5069C35.4024 11.5178 35.4879 11.5385 35.5528 11.5816C35.7203 11.692 35.8775 11.8186 36.0403 11.9394Z" fill="white"/>
</g>
</g>
<g id="Clip path group_12">
<mask id="mask11_116_4351" style="mask-type:luminance" maskUnits="userSpaceOnUse" x="0" y="0" width="50" height="51">
<g id="SVGID_2__12">
<path id="Vector_23" d="M49.9999 0H0.62793V51H49.9999V0Z" fill="white"/>
</g>
</mask>
<g mask="url(#mask11_116_4351)">
<path id="Vector_24" d="M8.40268 23.0004C8.14958 22.9714 7.90892 22.9309 7.69109 22.8059C7.45406 22.669 7.34151 22.4605 7.37885 22.2411C7.42761 21.9574 7.58372 21.7924 7.87261 21.7416C8.25175 21.6763 8.61222 21.7333 8.92445 21.9688C9.24809 22.2126 9.18689 22.7338 8.81605 22.8951C8.68742 22.9511 8.54116 22.9667 8.40268 23.0004Z" fill="white"/>
</g>
</g>
<g id="Clip path group_13">
<mask id="mask12_116_4351" style="mask-type:luminance" maskUnits="userSpaceOnUse" x="0" y="0" width="50" height="51">
<g id="SVGID_2__13">
<path id="Vector_25" d="M49.9999 0H0.62793V51H49.9999V0Z" fill="white"/>
</g>
</mask>
<g mask="url(#mask12_116_4351)">
<path id="Vector_26" d="M41.014 17.4834C41.3569 17.4761 41.5452 17.5799 41.6489 17.819C41.7505 18.0539 41.7127 18.2629 41.5073 18.4548C41.2044 18.7359 40.8491 18.9076 40.4259 18.835C40.011 18.7634 39.8414 18.266 40.1147 17.9445C40.3709 17.6426 40.7163 17.5176 41.014 17.4834Z" fill="white"/>
</g>
</g>
</g>
</g>
</svg>
